<svg xmlns="http://www.w3.org/2000/svg" viewBox="0 0 500 500"><g id="freepik--background-complete--inject-245"><rect y="382.4" width="500" height="0.25" style="fill:#ebebeb"></rect><path d="M237,337.8H43.91a5.71,5.71,0,0,1-5.7-5.71V60.66A5.71,5.71,0,0,1,43.91,55H237a5.71,5.71,0,0,1,5.71,5.71V332.09A5.71,5.71,0,0,1,237,337.8ZM43.91,55.2a5.46,5.46,0,0,0-5.45,5.46V332.09a5.46,5.46,0,0,0,5.45,5.46H237a5.47,5.47,0,0,0,5.46-5.46V60.66A5.47,5.47,0,0,0,237,55.2Z" style="fill:#ebebeb"></path><path d="M453.31,337.8H260.21a5.72,5.72,0,0,1-5.71-5.71V60.66A5.72,5.72,0,0,1,260.21,55h193.1A5.71,5.71,0,0,1,459,60.66V332.09A5.71,5.71,0,0,1,453.31,337.8ZM260.21,55.2a5.47,5.47,0,0,0-5.46,5.46V332.09a5.47,5.47,0,0,0,5.46,5.46h193.1a5.47,5.47,0,0,0,5.46-5.46V60.66a5.47,5.47,0,0,0-5.46-5.46Z" style="fill:#ebebeb"></path><rect x="423.9" y="398.49" width="26" height="0.25" style="fill:#ebebeb"></rect><rect x="311" y="401.21" width="45.03" height="0.25" style="fill:#ebebeb"></rect><rect x="362.11" y="389.21" width="60.79" height="0.25" style="fill:#ebebeb"></rect><rect x="52.46" y="390.89" width="19.23" height="0.25" style="fill:#ebebeb"></rect><rect x="80.6" y="390.89" width="55.29" height="0.25" style="fill:#ebebeb"></rect><rect x="169.67" y="395.11" width="74.47" height="0.25" style="fill:#ebebeb"></rect><rect x="77.5" y="85.4" width="200.95" height="144.26" style="fill:#fafafa"></rect><polygon points="131.38 229.66 165.84 85.39 204.2 85.39 169.74 229.66 131.38 229.66" style="fill:#fff"></polygon><polygon points="206.3 229.66 240.76 85.39 254.75 85.39 220.29 229.66 206.3 229.66" style="fill:#fff"></polygon><polygon points="118.14 229.66 152.61 85.39 157.86 85.39 123.4 229.66 118.14 229.66" style="fill:#fff"></polygon><path d="M288,80.43H67.92a.9.9,0,0,0-.9.9h0a.89.89,0,0,0,.9.89H288a.9.9,0,0,0,.9-.89h0A.91.91,0,0,0,288,80.43Z" style="fill:#e0e0e0"></path><rect x="174.58" y="85.08" width="8.57" height="144.88" transform="translate(357.73 315.05) rotate(180)" style="fill:#f0f0f0"></rect><rect x="183.15" y="85.08" width="0.96" height="144.88" transform="translate(367.26 315.05) rotate(180)" style="fill:#e0e0e0"></rect><rect x="176.78" y="55.66" width="2.38" height="203.73" transform="translate(20.45 335.5) rotate(-90)" style="fill:#f0f0f0"></rect><path d="M279.84,228.66h0V84H76.11V228.66h0V231H279.84Zm-201.35,0V86.39h199V228.66Z" style="fill:#f0f0f0"></path><rect x="279.84" y="84.01" width="1.19" height="147.04" transform="translate(560.87 315.05) rotate(180)" style="fill:#e0e0e0"></rect><polygon points="244.39 78.25 244.39 317.85 294.62 317.85 285.41 78.25 244.39 78.25" style="fill:#ebebeb;opacity:0.5"></polygon><polygon points="209.53 78.25 209.53 317.85 259.76 317.85 250.55 78.25 209.53 78.25" style="fill:#ebebeb;opacity:0.5"></polygon><polygon points="93.42 78.25 93.42 317.85 62.52 317.85 68.19 78.25 93.42 78.25" style="fill:#ebebeb;opacity:0.5"></polygon><polygon points="114.87 78.25 114.87 317.85 83.97 317.85 89.63 78.25 114.87 78.25" style="fill:#ebebeb;opacity:0.5"></polygon><rect x="188.18" y="230.14" width="22.17" height="152.26" transform="translate(398.53 612.53) rotate(180)" style="fill:#e6e6e6"></rect><polygon points="195.99 382.4 188.18 382.4 188.18 353.46 204.17 353.46 195.99 382.4" style="fill:#f0f0f0"></polygon><rect x="422.67" y="230.14" width="22.17" height="152.26" transform="translate(867.51 612.53) rotate(180)" style="fill:#e6e6e6"></rect><rect x="188.18" y="230.14" width="241.3" height="144.36" transform="translate(617.66 604.64) rotate(180)" style="fill:#f0f0f0"></rect><polygon points="421.67 382.4 429.48 382.4 429.48 353.46 413.49 353.46 421.67 382.4" style="fill:#f0f0f0"></polygon><rect x="325.98" y="266.04" width="119.42" height="71.53" transform="translate(83.89 687.49) rotate(-90)" style="fill:#e6e6e6"></rect><path d="M378.62,246.29h14.15A24,24,0,0,0,409,240.18H362.37A24,24,0,0,0,378.62,246.29Z" style="fill:#f0f0f0"></path><rect x="249.12" y="266.04" width="119.42" height="71.53" transform="translate(7.03 610.63) rotate(-90)" style="fill:#e6e6e6"></rect><path d="M301,246.29h14.15a24,24,0,0,0,16.25-6.11H284.78A24,24,0,0,0,301,246.29Z" style="fill:#f0f0f0"></path><rect x="172.26" y="266.04" width="119.42" height="71.53" transform="translate(-69.83 533.77) rotate(-90)" style="fill:#e6e6e6"></rect><path d="M224.17,246.29h14.15a24,24,0,0,0,16.25-6.11H207.92A24,24,0,0,0,224.17,246.29Z" style="fill:#f0f0f0"></path><path d="M436,202.51H362.51s.67,18.94,21.74,25.19v2.44h30V227.7C435.35,221.45,436,202.51,436,202.51Z" style="fill:#e6e6e6"></path><rect x="319.96" y="82.44" width="96.13" height="102.94" style="fill:#f0f0f0"></rect><rect x="416.09" y="82.44" width="3.18" height="102.94" transform="translate(835.37 267.81) rotate(180)" style="fill:#e0e0e0"></rect><rect x="336.22" y="91.26" width="63.62" height="85.28" style="fill:#fff"></rect></g><g id="freepik--Shadow--inject-245"><ellipse id="freepik--path--inject-245" cx="250" cy="416.24" rx="193.89" ry="11.32" style="fill:#f5f5f5"></ellipse></g><g id="freepik--Printer--inject-245"><rect x="142.76" y="302.52" width="197.24" height="18.32" style="fill:#263238"></rect><rect x="284.01" y="302.52" width="55.99" height="18.32" style="opacity:0.2"></rect><rect x="142.76" y="320.84" width="11.81" height="98.93" style="fill:#263238"></rect><polygon points="154.56 325.97 142.76 323.41 142.76 320.84 154.56 320.84 154.56 325.97" style="opacity:0.2"></polygon><rect x="328.2" y="320.84" width="11.81" height="98.93" style="fill:#263238"></rect><rect x="328.2" y="320.84" width="11.81" height="98.93" style="opacity:0.2"></rect><rect x="284.01" y="320.84" width="11.81" height="98.93" style="fill:#263238"></rect><polygon points="295.82 325.97 284.01 323.41 284.01 320.84 295.82 320.84 295.82 325.97" style="opacity:0.2"></polygon><rect x="179.72" y="320.84" width="11.81" height="98.93" style="fill:#263238"></rect><rect x="179.72" y="320.84" width="11.81" height="98.93" style="opacity:0.2"></rect><polygon points="319.96 210.52 172.09 210.52 158.96 268.02 306.83 268.02 319.96 210.52" style="fill:#263238"></polygon><polygon points="319.96 210.52 323.34 210.52 310.21 268.02 306.83 268.02 319.96 210.52"></polygon><rect x="116.07" y="233.52" width="237.13" height="69" rx="12" style="fill:#5E1D5B"></rect><rect x="301.96" y="233.52" width="51.25" height="69" rx="12" style="opacity:0.2"></rect><path d="M293.2,251.35H124.83a2,2,0,0,1-2-2h0a2,2,0,0,1,2-2H293.2a2,2,0,0,1,2,2h0A2,2,0,0,1,293.2,251.35Z" style="opacity:0.2"></path><path d="M283.4,269.85h10.12a1.67,1.67,0,0,0,1.66-1.66h0a1.67,1.67,0,0,0-1.66-1.67H283.4a1.67,1.67,0,0,0-1.66,1.67h0A1.67,1.67,0,0,0,283.4,269.85Z" style="fill:#fff"></path><path d="M283.4,276.94h10.12a1.67,1.67,0,0,0,1.66-1.67h0a1.67,1.67,0,0,0-1.66-1.66H283.4a1.67,1.67,0,0,0-1.66,1.66h0A1.67,1.67,0,0,0,283.4,276.94Z" style="fill:#fff"></path><path d="M283.4,284h10.12a1.67,1.67,0,0,0,1.66-1.67h0a1.67,1.67,0,0,0-1.66-1.67H283.4a1.67,1.67,0,0,0-1.66,1.67h0A1.67,1.67,0,0,0,283.4,284Z" style="fill:#fff"></path><path d="M164.11,249.35c1.95-16.87-10.15-30.54-27-30.54H260.3c16.87,0,29,13.67,27,30.54Z" style="fill:#5E1D5B"></path><g style="opacity:0.3"><path d="M164.11,249.35c1.95-16.87-10.15-30.54-27-30.54H260.3c16.87,0,29,13.67,27,30.54Z" style="fill:#fff"></path></g><path d="M137.09,218.81H260.3c-16.86,0-32.11,13.67-34.06,30.54l-14,121.33c-1.94,16.87-17.19,30.54-34.06,30.54H116.08c-16.87,0-29-13.67-27-30.54l14-121.33C105,232.48,120.22,218.81,137.09,218.81Z" style="fill:#5E1D5B"></path><path d="M137.09,218.81H260.3c-16.86,0-32.11,13.67-34.06,30.54l-14,121.33c-1.94,16.87-17.19,30.54-34.06,30.54H116.08c-16.87,0-29-13.67-27-30.54l14-121.33C105,232.48,120.22,218.81,137.09,218.81Z" style="fill:#fff;opacity:0.7000000000000001"></path><path d="M151.19,370.68c-1.95,16.87,10.15,30.54,27,30.54H55c-16.87,0-29-13.67-27-30.54Z" style="fill:#5E1D5B"></path><path d="M151.19,370.68c-1.95,16.87,10.15,30.54,27,30.54H55c-16.87,0-29-13.67-27-30.54Z" style="fill:#fff;opacity:0.5"></path><path d="M112,259.9h2.9l-1.08,9.36h-2.9Z" style="fill:#5E1D5B"></path><path d="M117,259.9h2.7l2.93,5.18.59-5.18h2.73l-1.08,9.36h-2.72l-2.92-5.14-.59,5.14h-2.72Z" style="fill:#5E1D5B"></path><path d="M126.91,259.9h3l1.33,6.74,2.85-6.74h2.94l-4.56,9.36h-3.13Z" style="fill:#5E1D5B"></path><path d="M136.65,264.59a5.44,5.44,0,0,1,1.69-3.57,5.34,5.34,0,0,1,3.7-1.28A4.4,4.4,0,0,1,145.5,261a4.34,4.34,0,0,1,.86,3.51,6.28,6.28,0,0,1-.87,2.69,4.61,4.61,0,0,1-1.78,1.64,6.61,6.61,0,0,1-5.23.08,3.39,3.39,0,0,1-1.5-1.6A5.1,5.1,0,0,1,136.65,264.59Zm2.89,0a2.94,2.94,0,0,0,.29,2,1.61,1.61,0,0,0,1.37.62,2,2,0,0,0,1.51-.61,3.77,3.77,0,0,0,.76-2.18,2.69,2.69,0,0,0-.31-1.93,1.64,1.64,0,0,0-1.38-.61,2,2,0,0,0-1.47.62A3.52,3.52,0,0,0,139.54,264.6Z" style="fill:#5E1D5B"></path><path d="M148.56,259.9h2.9l-1.08,9.36h-2.9Z" style="fill:#5E1D5B"></path><path d="M159.13,265.43l2.44.77a5.38,5.38,0,0,1-1,1.78,4,4,0,0,1-1.48,1.08,5.49,5.49,0,0,1-2.12.36,5.76,5.76,0,0,1-2.44-.44,3.38,3.38,0,0,1-1.49-1.56,5,5,0,0,1-.37-2.86,5.46,5.46,0,0,1,1.65-3.57,5.2,5.2,0,0,1,3.63-1.25,4.34,4.34,0,0,1,2.7.72,3.61,3.61,0,0,1,1.25,2.2l-2.62.56a1.64,1.64,0,0,0-.21-.62,1.37,1.37,0,0,0-.53-.51,1.59,1.59,0,0,0-.77-.18,1.92,1.92,0,0,0-1.59.79,3.67,3.67,0,0,0-.61,1.84,3.28,3.28,0,0,0,.23,2.13,1.42,1.42,0,0,0,1.26.58,1.81,1.81,0,0,0,1.31-.46A3.5,3.5,0,0,0,159.13,265.43Z" style="fill:#5E1D5B"></path><path d="M163.7,259.9h7.75l-.23,2h-4.86l-.17,1.49h4.5l-.22,1.91H166l-.21,1.84h5l-.24,2.12h-7.89Z" style="fill:#5E1D5B"></path><polygon points="211.76 293.69 107.3 293.69 108.66 281.85 213.12 281.85 211.76 293.69" style="fill:#5E1D5B"></polygon><polygon points="211.76 293.69 107.3 293.69 106.19 303.35 210.65 303.35 211.76 293.69" style="fill:#fff;opacity:0.8"></polygon><polygon points="204.54 356.37 172.75 356.37 173.4 350.66 205.2 350.66 204.54 356.37" style="fill:#5E1D5B"></polygon><polygon points="204.54 356.37 172.75 356.37 172.21 361.04 204 361.04 204.54 356.37" style="fill:#fff;opacity:0.8"></polygon><polygon points="209.53 313.02 105.07 313.02 106.19 303.35 210.65 303.35 209.53 313.02" style="fill:#fff;opacity:0.5"></polygon><polygon points="209.53 313.02 105.07 313.02 103.96 322.69 208.42 322.69 209.53 313.02" style="fill:#fff;opacity:0.8"></polygon><polygon points="207.31 332.35 102.84 332.35 103.96 322.69 208.42 322.69 207.31 332.35" style="fill:#fff;opacity:0.5"></polygon><polygon points="207.31 332.35 102.84 332.35 101.73 342.02 206.19 342.02 207.31 332.35" style="fill:#fff;opacity:0.8"></polygon></g></svg>