<svg xmlns="http://www.w3.org/2000/svg" viewBox="0 0 500 500"><g id="freepik--background-simple--inject-61"><path d="M327.83,53.06S248.49,21.89,172.61,65.88,60.28,200.38,28.83,272.82,18.63,420.43,78.41,456.1s98.47-13.38,181-13.52,105.06,12.73,172.29-33.76,76.55-160.45,20.22-246.54S327.83,53.06,327.83,53.06Z" style="fill:#2B7D8E"></path><path d="M327.83,53.06S248.49,21.89,172.61,65.88,60.28,200.38,28.83,272.82,18.63,420.43,78.41,456.1s98.47-13.38,181-13.52,105.06,12.73,172.29-33.76,76.55-160.45,20.22-246.54S327.83,53.06,327.83,53.06Z" style="fill:#fff;opacity:0.7000000000000001"></path></g><g id="freepik--Information--inject-61"><path d="M460,96.56H389.59V90.88H460Zm-69.44-1H459V91.88H390.59Z" style="fill:#263238"></path><path d="M425,105.91H389.59v-5.68H425Zm-34.37-1H424v-3.68H390.59Z" style="fill:#263238"></path><path d="M437.55,115.25h-48v-5.67h48Zm-47-1h46v-3.67h-46Z" style="fill:#263238"></path><path d="M419.56,124.6h-30v-5.67h30Zm-29-1h28v-3.67h-28Z" style="fill:#263238"></path><path d="M443.78,134H389.59v-5.67h54.19Zm-53.19-1h52.19v-3.67H390.59Z" style="fill:#263238"></path><path d="M427.51,143.3H389.59v-5.68h37.92Zm-36.92-1h35.92v-3.68H390.59Z" style="fill:#263238"></path><path d="M432,152.65H389.59V147H432Zm-41.42-1H431V148H390.59Z" style="fill:#263238"></path><rect x="390.7" y="82" width="34.94" height="1" style="fill:#263238"></rect><rect x="390.7" y="76.12" width="34.94" height="1" style="fill:#263238"></rect></g><g id="freepik--avatar-icons--inject-61"><path d="M42.86,142.18a16.73,16.73,0,1,1,16.72-16.72A16.75,16.75,0,0,1,42.86,142.18Zm0-32.45a15.73,15.73,0,1,0,15.72,15.73A15.75,15.75,0,0,0,42.86,109.73Z" style="fill:#263238"></path><path d="M42.86,129.86a6.25,6.25,0,1,1,6.25-6.25A6.26,6.26,0,0,1,42.86,129.86Zm0-11.5a5.25,5.25,0,1,0,5.25,5.25A5.25,5.25,0,0,0,42.86,118.36Z" style="fill:#263238"></path><path d="M42.86,142.18a16.53,16.53,0,0,1-10.06-3.39l-.24-.18,0-.3a10.39,10.39,0,0,1,20.5,0l0,.3-.24.18A16.56,16.56,0,0,1,42.86,142.18Zm-9.21-4a15.64,15.64,0,0,0,18.42,0,9.39,9.39,0,0,0-18.42,0Z" style="fill:#263238"></path><path d="M42.86,182.91a16.73,16.73,0,1,1,16.72-16.72A16.75,16.75,0,0,1,42.86,182.91Zm0-32.45a15.73,15.73,0,1,0,15.72,15.73A15.75,15.75,0,0,0,42.86,150.46Z" style="fill:#263238"></path><path d="M42.86,170.59a6.25,6.25,0,1,1,6.25-6.25A6.26,6.26,0,0,1,42.86,170.59Zm0-11.5a5.25,5.25,0,1,0,5.25,5.25A5.25,5.25,0,0,0,42.86,159.09Z" style="fill:#263238"></path><path d="M42.86,182.91a16.59,16.59,0,0,1-10.06-3.38l-.24-.19,0-.3a10.39,10.39,0,0,1,20.5,0l0,.3-.24.19A16.63,16.63,0,0,1,42.86,182.91Zm-9.21-4a15.64,15.64,0,0,0,18.42,0,9.39,9.39,0,0,0-18.42,0Z" style="fill:#263238"></path><path d="M42.86,223.64a16.73,16.73,0,1,1,16.72-16.72A16.75,16.75,0,0,1,42.86,223.64Zm0-32.45a15.73,15.73,0,1,0,15.72,15.73A15.75,15.75,0,0,0,42.86,191.19Z" style="fill:#263238"></path><path d="M42.86,211.32a6.25,6.25,0,1,1,6.25-6.25A6.25,6.25,0,0,1,42.86,211.32Zm0-11.5a5.25,5.25,0,1,0,5.25,5.25A5.26,5.26,0,0,0,42.86,199.82Z" style="fill:#263238"></path><path d="M42.86,223.64a16.59,16.59,0,0,1-10.06-3.38l-.24-.18,0-.3a10.39,10.39,0,0,1,20.5,0l0,.3-.24.18A16.61,16.61,0,0,1,42.86,223.64Zm-9.21-4a15.64,15.64,0,0,0,18.42,0,9.39,9.39,0,0,0-18.42,0Z" style="fill:#263238"></path><path d="M42.86,264.37a16.72,16.72,0,1,1,16.72-16.72A16.75,16.75,0,0,1,42.86,264.37Zm0-32.44a15.72,15.72,0,1,0,15.72,15.72A15.74,15.74,0,0,0,42.86,231.93Z" style="fill:#263238"></path><path d="M42.86,252.05a6.25,6.25,0,1,1,6.25-6.25A6.25,6.25,0,0,1,42.86,252.05Zm0-11.5a5.25,5.25,0,1,0,5.25,5.25A5.26,5.26,0,0,0,42.86,240.55Z" style="fill:#263238"></path><path d="M42.86,264.37A16.59,16.59,0,0,1,32.8,261l-.24-.18,0-.3a10.39,10.39,0,0,1,20.5,0l0,.3-.24.18A16.61,16.61,0,0,1,42.86,264.37Zm-9.21-4a15.64,15.64,0,0,0,18.42,0,9.39,9.39,0,0,0-18.42,0Z" style="fill:#263238"></path></g><g id="freepik--profile-3--inject-61"><rect x="240.25" y="364.5" width="79.42" height="1" style="fill:#263238"></rect><rect x="230.57" y="361.61" width="5.32" height="5.32" style="fill:#2B7D8E"></rect><rect x="240.25" y="376.12" width="79.42" height="1" style="fill:#263238"></rect><rect x="230.57" y="373.22" width="5.32" height="5.32" style="fill:#2B7D8E"></rect><rect x="240.25" y="387.73" width="79.42" height="1" style="fill:#263238"></rect><rect x="230.57" y="384.83" width="5.32" height="5.32" style="fill:#2B7D8E"></rect><rect x="240.25" y="399.34" width="79.42" height="1" style="fill:#263238"></rect><rect x="230.57" y="396.45" width="5.32" height="5.32" style="fill:#2B7D8E"></rect><path d="M364.74,421.84h-196V299.89h196Zm-195-1h194V300.89h-194Z" style="fill:#263238"></path><path d="M364.74,310.61h-196V299.89h196Zm-195-1h194v-8.72h-194Z" style="fill:#263238"></path><rect x="219.83" y="310.79" width="1" height="109.52" style="fill:#263238"></rect><path d="M246.43,353.05a17.33,17.33,0,1,1,17.33-17.33A17.34,17.34,0,0,1,246.43,353.05Zm0-33.66a16.33,16.33,0,1,0,16.33,16.33A16.34,16.34,0,0,0,246.43,319.39Z" style="fill:#263238"></path><path d="M246.43,340.27a6.47,6.47,0,1,1,6.47-6.47A6.48,6.48,0,0,1,246.43,340.27Zm0-11.94a5.47,5.47,0,1,0,5.47,5.47A5.48,5.48,0,0,0,246.43,328.33Z" style="fill:#263238"></path><path d="M246.43,353.05A17.11,17.11,0,0,1,236,349.54l-.25-.18.05-.3a10.77,10.77,0,0,1,21.24,0l.05.3-.25.18A17.11,17.11,0,0,1,246.43,353.05Zm-9.57-4.12a16.25,16.25,0,0,0,19.15,0,9.76,9.76,0,0,0-19.15,0Z" style="fill:#263238"></path><path d="M195.19,343.08a8.6,8.6,0,1,1,8.59-8.59A8.6,8.6,0,0,1,195.19,343.08Zm0-16.19a7.6,7.6,0,1,0,7.59,7.6A7.61,7.61,0,0,0,195.19,326.89Z" style="fill:#263238"></path><path d="M195.19,336.94a3.37,3.37,0,1,1,3.37-3.37A3.38,3.38,0,0,1,195.19,336.94Zm0-5.74a2.37,2.37,0,1,0,2.37,2.37A2.37,2.37,0,0,0,195.19,331.2Z" style="fill:#263238"></path><path d="M195.19,343.08a8.53,8.53,0,0,1-5.17-1.73l-.25-.19,0-.3a5.44,5.44,0,0,1,10.73,0l0,.3-.24.19A8.58,8.58,0,0,1,195.19,343.08Zm-4.32-2.35a7.68,7.68,0,0,0,8.63,0,4.44,4.44,0,0,0-8.63,0Z" style="fill:#263238"></path><path d="M195.19,377a8.6,8.6,0,1,1,8.59-8.6A8.61,8.61,0,0,1,195.19,377Zm0-16.2a7.6,7.6,0,1,0,7.59,7.6A7.61,7.61,0,0,0,195.19,360.79Z" style="fill:#263238"></path><path d="M195.19,370.84a3.37,3.37,0,1,1,3.37-3.37A3.37,3.37,0,0,1,195.19,370.84Zm0-5.74a2.37,2.37,0,1,0,2.37,2.37A2.37,2.37,0,0,0,195.19,365.1Z" style="fill:#263238"></path><path d="M195.19,377a8.54,8.54,0,0,1-5.17-1.74l-.25-.19,0-.29a5.44,5.44,0,0,1,10.73,0l0,.29-.24.19A8.59,8.59,0,0,1,195.19,377Zm-4.32-2.36a7.66,7.66,0,0,0,8.63,0,4.44,4.44,0,0,0-8.63,0Z" style="fill:#263238"></path><path d="M195.19,410.89a8.6,8.6,0,1,1,8.59-8.6A8.61,8.61,0,0,1,195.19,410.89Zm0-16.2a7.6,7.6,0,1,0,7.59,7.6A7.61,7.61,0,0,0,195.19,394.69Z" style="fill:#263238"></path><path d="M195.19,404.74a3.37,3.37,0,1,1,3.37-3.37A3.37,3.37,0,0,1,195.19,404.74Zm0-5.74a2.37,2.37,0,1,0,2.37,2.37A2.37,2.37,0,0,0,195.19,399Z" style="fill:#263238"></path><path d="M195.19,410.89a8.48,8.48,0,0,1-5.17-1.74l-.25-.19,0-.29a5.44,5.44,0,0,1,10.73,0l0,.29-.24.19A8.52,8.52,0,0,1,195.19,410.89Zm-4.32-2.36a7.66,7.66,0,0,0,8.63,0,4.44,4.44,0,0,0-8.63,0Z" style="fill:#263238"></path><rect x="272.32" y="325.63" width="42.61" height="1" style="fill:#263238"></rect><rect x="272.32" y="335.43" width="42.61" height="1" style="fill:#263238"></rect><rect x="272.32" y="345.23" width="42.61" height="1" style="fill:#263238"></rect></g><g id="freepik--profile-2--inject-61"><path d="M368,266.86H233V68.31H368Zm-134-1H367V69.31H234Z" style="fill:#263238"></path><circle cx="297.08" cy="130.84" r="42.92" style="fill:#fff"></circle><path d="M297.08,174.26a43.42,43.42,0,1,1,43.42-43.42A43.47,43.47,0,0,1,297.08,174.26Zm0-85.83a42.42,42.42,0,1,0,42.42,42.41A42.46,42.46,0,0,0,297.08,88.43Z" style="fill:#263238"></path><rect x="252.63" y="187.1" width="90.43" height="1" style="fill:#263238"></rect><rect x="252.63" y="196.3" width="90.43" height="1" style="fill:#263238"></rect><rect x="263.64" y="211.78" width="79.42" height="1" style="fill:#263238"></rect><rect x="253.97" y="208.88" width="5.32" height="5.32" style="fill:#2B7D8E"></rect><rect x="263.64" y="223.39" width="79.42" height="1" style="fill:#263238"></rect><rect x="253.97" y="220.5" width="5.32" height="5.32" style="fill:#2B7D8E"></rect><rect x="263.64" y="235" width="79.42" height="1" style="fill:#263238"></rect><rect x="253.97" y="232.11" width="5.32" height="5.32" style="fill:#2B7D8E"></rect><rect x="263.64" y="246.61" width="79.42" height="1" style="fill:#263238"></rect><rect x="253.97" y="243.72" width="5.32" height="5.32" style="fill:#2B7D8E"></rect><path d="M287.59,102.37a20.59,20.59,0,0,1,18-9.22c12.42.4,15.43,14,15,18a19.15,19.15,0,0,1-1.81,6.62l-5.41-4.61a37.17,37.17,0,0,1,8.46,13.06c3,8,1.56,18.39-2.25,20.8s-6.41,1.4-6.41,1.4l.4-5.41s-3.6,6.41-9.61,7.61-23.24,2-25.85-1a14.84,14.84,0,0,1-3.2-6.41l-.4,5.21s-5.41-4-5.61-8.62,2.6-11,4-14.42,2.4-5.21,2.8-10.42-.2-8,3.41-11.42S287.59,102.37,287.59,102.37Z" style="fill:#263238"></path><path d="M290.17,152.22c-5.61,0-10.91-.56-12.37-2.24a15.2,15.2,0,0,1-2.53-4.12l-.2,2.63a.51.51,0,0,1-.29.41.49.49,0,0,1-.51-.05c-.23-.17-5.6-4.2-5.81-9-.19-4.42,2.28-10.38,3.76-13.94l.28-.69.49-1.16a24.46,24.46,0,0,0,2.28-9.11c.07-.91.11-1.74.15-2.52.17-3.64.29-6.28,3.41-9.22s7.28-1.93,8.56-1.46a21.35,21.35,0,0,1,18.25-9.1,14.27,14.27,0,0,1,10.66,5c3.8,4.34,5.14,10.68,4.84,13.6a19.39,19.39,0,0,1-1.86,6.8.47.47,0,0,1-.34.26.51.51,0,0,1-.42-.11l-.73-.63a37.76,37.76,0,0,1,4.57,8.52c3,8,1.74,18.75-2.45,21.4-4,2.51-6.74,1.49-6.86,1.44a.49.49,0,0,1-.31-.5l.26-3.51c-1.52,2-4.59,5.38-8.88,6.24A84.44,84.44,0,0,1,290.17,152.22ZM275,142.74a.49.49,0,0,1,.49.41,14.61,14.61,0,0,0,3.09,6.17c2.3,2.66,18.63,2.19,25.37.84,5.71-1.14,9.24-7.3,9.28-7.37a.5.5,0,0,1,.93.29l-.37,5c.79.16,2.84.31,5.62-1.45,3.43-2.16,5.08-12.11,2-20.2a37,37,0,0,0-8.33-12.87.5.5,0,0,1,0-.69.49.49,0,0,1,.7,0l4.91,4.18a20,20,0,0,0,1.48-5.86,19.75,19.75,0,0,0-4.6-12.84,13.3,13.3,0,0,0-9.94-4.64,20.35,20.35,0,0,0-17.59,9,.5.5,0,0,1-.64.2c-.18-.08-4.55-2-7.86,1.11-2.83,2.67-2.93,4.89-3.1,8.55,0,.79-.08,1.63-.15,2.55a25.17,25.17,0,0,1-2.36,9.42c-.15.36-.32.74-.48,1.15l-.29.7c-1.45,3.48-3.86,9.31-3.68,13.51.14,3.32,3.24,6.39,4.68,7.64l.33-4.25a.5.5,0,0,1,.47-.46Z" style="fill:#263238"></path><path d="M279.22,157c-3.32,1.43-8.69,2.7-12.34,4.33a42.9,42.9,0,0,0,60.26.14,22.59,22.59,0,0,0-4.39-1.62c-6.42-1.78-15.54-7-16.61-8.78s-2.12-8-2.12-8l-14.83-2s.74,7.76.74,9.19S284.22,154.86,279.22,157Z" style="fill:#fff"></path><path d="M297.08,174.26a43.12,43.12,0,0,1-30.55-12.57.51.51,0,0,1-.14-.45.47.47,0,0,1,.28-.36,63.28,63.28,0,0,1,6.77-2.4c2.09-.66,4.05-1.28,5.59-1.94,6.44-2.76,10.4-5.54,10.4-6.32,0-1.39-.73-9.06-.73-9.14a.49.49,0,0,1,.15-.41.51.51,0,0,1,.41-.13l14.83,2a.5.5,0,0,1,.42.42c0,.06,1.05,6.17,2.06,7.86.91,1.52,9.63,6.7,16.31,8.55a24.24,24.24,0,0,1,4.49,1.65.51.51,0,0,1,.12.8A43.17,43.17,0,0,1,297.08,174.26ZM267.76,161.5a42.41,42.41,0,0,0,58.52.1,25.89,25.89,0,0,0-3.66-1.26c-6.27-1.74-15.71-7-16.9-9-1-1.61-1.88-6.46-2.13-7.85l-13.84-1.87c.17,1.89.68,7.4.68,8.61,0,2.49-10.56,7.05-11,7.24h0c-1.58.68-3.57,1.3-5.67,2S269.55,160.75,267.76,161.5Zm11.47-4.5Z" style="fill:#263238"></path><path d="M285.39,123.81s1.2-9,4-13.83,8.82-3.4,11.22-1.8S306.82,118.4,309,124s3.2,8.81,3.2,8.81S308.74,140.11,304,143c-5,3.12-10.52,3-14.83-2a22.79,22.79,0,0,1-3.6-5.8s-5-1.61-6.21-5.81-.2-6.42,1.8-7S285.39,123.81,285.39,123.81Z" style="fill:#fff"></path><path d="M297.36,145.63a11.16,11.16,0,0,1-8.55-4.27,23.62,23.62,0,0,1-3.6-5.74c-1-.37-5.19-2.12-6.31-6.07-1.66-5.8.94-7.27,2.14-7.63a4.93,4.93,0,0,1,4,1c.37-2.38,1.6-9.14,3.94-13.16a6.81,6.81,0,0,1,4.49-3.35,10.31,10.31,0,0,1,7.44,1.38c2.88,1.93,7.31,12.78,8.6,16.06,2.19,5.57,3.21,8.82,3.22,8.85a.48.48,0,0,1,0,.37c-.14.3-3.61,7.46-8.4,10.42A13.08,13.08,0,0,1,297.36,145.63ZM282,122.79a2.43,2.43,0,0,0-.65.09c-1.95.59-2.47,2.86-1.46,6.4,1.11,3.9,5.83,5.45,5.88,5.47a.47.47,0,0,1,.31.29,22.81,22.81,0,0,0,3.52,5.67c3.87,4.49,8.91,5.17,14.19,1.9,4.14-2.56,7.37-8.71,7.93-9.83-.24-.77-1.26-3.82-3.13-8.59-2.6-6.62-6.13-14.2-8.22-15.59a9.31,9.31,0,0,0-6.67-1.24,5.81,5.81,0,0,0-3.84,2.87c-2.73,4.67-3.94,13.55-3.95,13.64a.48.48,0,0,1-.32.4.5.5,0,0,1-.51-.09A5.55,5.55,0,0,0,282,122.79Z" style="fill:#263238"></path><path d="M300.66,130.61a3.91,3.91,0,0,1-1-.11.5.5,0,1,1,.21-1,2.2,2.2,0,0,0,2.41-.71,2.24,2.24,0,0,0-.32-2.52,9.44,9.44,0,0,1-1.5-5.53.5.5,0,1,1,1,.06,8.57,8.57,0,0,0,1.31,4.89,3.19,3.19,0,0,1,.35,3.65A2.9,2.9,0,0,1,300.66,130.61Z" style="fill:#263238"></path><path d="M298.6,134.91a7.07,7.07,0,0,1-6.65-4.27.5.5,0,0,1,.22-.67.52.52,0,0,1,.68.22c2.94,5.89,9.09,3.1,9.35,3a.5.5,0,0,1,.67.24.5.5,0,0,1-.24.66A10.57,10.57,0,0,1,298.6,134.91Z" style="fill:#263238"></path><path d="M293.6,124c0,.88.36,1.6.8,1.6s.8-.72.8-1.6-.36-1.61-.8-1.61S293.6,123.12,293.6,124Z" style="fill:#263238"></path><path d="M303.42,124c0,.88.36,1.6.8,1.6s.8-.72.8-1.6-.36-1.61-.8-1.61S303.42,123.12,303.42,124Z" style="fill:#263238"></path><path d="M291.4,118.1a.5.5,0,0,1-.34-.87,4.13,4.13,0,0,1,5.24-.64.5.5,0,1,1-.59.81,3.13,3.13,0,0,0-4,.56A.47.47,0,0,1,291.4,118.1Z" style="fill:#263238"></path><path d="M301.81,117.89a.54.54,0,0,1-.33-.12.51.51,0,0,1,0-.71,3.84,3.84,0,0,1,4.39-.92.5.5,0,1,1-.42.91,2.85,2.85,0,0,0-3.22.68A.51.51,0,0,1,301.81,117.89Z" style="fill:#263238"></path><path d="M313.26,155.9l-15.54,14.73-15.06-15.22c-1.13.56-2.3,1.1-3.44,1.59-3.32,1.43-8.69,2.7-12.34,4.33a42.9,42.9,0,0,0,60.26.14,22.59,22.59,0,0,0-4.39-1.62A50.79,50.79,0,0,1,313.26,155.9Z" style="fill:#2B7D8E"></path><path d="M297.08,174.26a43.12,43.12,0,0,1-30.55-12.57l-.52-.52.66-.29a63.28,63.28,0,0,1,6.77-2.4c2.09-.66,4.05-1.28,5.59-1.94,1.11-.48,2.26-1,3.4-1.58l.33-.16,15,15.13,15.44-14.64.32.17a50,50,0,0,0,9.39,3.91,24.24,24.24,0,0,1,4.49,1.65l.61.32-.49.48A43.17,43.17,0,0,1,297.08,174.26ZM267.76,161.5a42.41,42.41,0,0,0,58.52.1,25.89,25.89,0,0,0-3.66-1.26,52.5,52.5,0,0,1-9.28-3.83l-15.63,14.82L282.56,156c-1.06.52-2.11,1-3.14,1.44-1.58.68-3.57,1.3-5.67,2S269.55,160.75,267.76,161.5Z" style="fill:#263238"></path></g><g id="freepik--profile-1--inject-61"><path d="M213.63,266.86h-135V68.31h135Zm-134-1h133V69.31h-133Z" style="fill:#263238"></path><rect x="98.28" y="187.1" width="90.43" height="1" style="fill:#263238"></rect><rect x="98.28" y="196.3" width="90.43" height="1" style="fill:#263238"></rect><rect x="109.3" y="211.78" width="79.42" height="1" style="fill:#263238"></rect><rect x="99.62" y="208.88" width="5.32" height="5.32" style="fill:#2B7D8E"></rect><rect x="109.3" y="223.39" width="79.42" height="1" style="fill:#263238"></rect><rect x="99.62" y="220.5" width="5.32" height="5.32" style="fill:#2B7D8E"></rect><rect x="109.3" y="235" width="79.42" height="1" style="fill:#263238"></rect><rect x="99.62" y="232.11" width="5.32" height="5.32" style="fill:#2B7D8E"></rect><rect x="109.3" y="246.61" width="79.42" height="1" style="fill:#263238"></rect><rect x="99.62" y="243.72" width="5.32" height="5.32" style="fill:#2B7D8E"></rect><circle cx="142.74" cy="130.84" r="42.92" style="fill:#fff"></circle><path d="M142.74,174.26a43.42,43.42,0,1,1,43.41-43.42A43.47,43.47,0,0,1,142.74,174.26Zm0-85.83a42.42,42.42,0,1,0,42.41,42.41A42.46,42.46,0,0,0,142.74,88.43Z" style="fill:#263238"></path><path d="M120.4,149.68l-10.7,8.56a42.9,42.9,0,0,0,65.52.63L159,148.26Z" style="fill:#263238"></path><path d="M142.74,174.26a43.3,43.3,0,0,1-33.42-15.7.52.52,0,0,1-.12-.37.49.49,0,0,1,.19-.34l10.69-8.56a.48.48,0,0,1,.3-.11l38.56-1.42a.49.49,0,0,1,.29.08l16.27,10.61a.51.51,0,0,1,.22.35.49.49,0,0,1-.12.4A43.39,43.39,0,0,1,142.74,174.26Zm-32.33-15.95a42.4,42.4,0,0,0,64.06.66l-15.65-10.2-38.24,1.4Z" style="fill:#263238"></path><path d="M133.83,137.56s-9.43,1.22-12.06,5.06-4.54,7.52-2.62,9.79a69.31,69.31,0,0,0,10.49,9.26c3.14,2.1,8.05,9.27,8.05,9.27a85.92,85.92,0,0,0,.69-9.09c0-3.85-3.32-8-4-11.54s5.07-9.08,9.08-7.34,7.17,7,7,9.44.69,5.42,1.57,9.61,1.57,7.79,1.57,7.79,5.94-6,7.87-12.51,1-13.1-6.12-17.47S133.83,137.56,133.83,137.56Z" style="fill:#2B7D8E"></path><path d="M137.69,171.44a.51.51,0,0,1-.41-.21c-.05-.07-4.89-7.12-7.92-9.14a70.62,70.62,0,0,1-10.59-9.36c-2.19-2.58,0-6.52,2.59-10.39s12-5.22,12.4-5.28c.65-.09,14.61-2.06,21.83,2.34,8.19,5,8,12.57,6.34,18-1.94,6.51-7.75,12.46-8,12.71a.5.5,0,0,1-.85-.25s-.7-3.59-1.57-7.78c-.2-.95-.4-1.84-.58-2.67a26.2,26.2,0,0,1-1-7.08c.16-2.26-2.84-7.27-6.69-8.95-1.55-.67-3.6-.15-5.51,1.39s-3.2,3.87-2.89,5.4a21.1,21.1,0,0,0,1.79,4.58c1.1,2.31,2.24,4.71,2.24,7a89.74,89.74,0,0,1-.69,9.16.51.51,0,0,1-.38.42Zm3.93-33.88a60.14,60.14,0,0,0-7.71.49h0c-.09,0-9.25,1.24-11.71,4.86-2.3,3.37-4.42,7.1-2.66,9.18a69.45,69.45,0,0,0,10.39,9.17c2.47,1.65,5.92,6.23,7.43,8.33.2-1.79.53-5.12.53-7.74,0-2.12-1.09-4.41-2.14-6.62a21.36,21.36,0,0,1-1.87-4.82c-.45-2.23,1.3-4.8,3.24-6.37,2.2-1.77,4.65-2.35,6.53-1.52,4.29,1.86,7.48,7.34,7.29,9.93a25.69,25.69,0,0,0,1,6.79c.19.84.39,1.73.59,2.68.6,2.89,1.12,5.48,1.38,6.83,1.59-1.77,5.6-6.58,7.09-11.59s1.74-12.24-5.9-16.91C151.52,138.09,146.09,137.56,141.62,137.56Zm-7.79,0h0Z" style="fill:#263238"></path><path d="M158.42,142.22a16.82,16.82,0,0,0-3.09-2.39c-7.17-4.37-21.5-2.27-21.5-2.27s-9.43,1.22-12.06,5.06c-.3.45-.6.9-.88,1.34a9.46,9.46,0,0,0,1.58,6.7c3.92,6.24,12,9.23,15.89,11-.12-3.78-3.32-7.88-4-11.31s5.07-9.08,9.08-7.34,7.17,7,7,9.44.69,5.42,1.57,9.61l.15.76c.3-.29.6-.59.9-.93A22.77,22.77,0,0,0,159,146.29,14.82,14.82,0,0,0,158.42,142.22Z" style="fill:#fff"></path><path d="M152.16,163.28a.4.4,0,0,1-.15,0,.47.47,0,0,1-.34-.38l-.15-.74c-.2-.95-.4-1.84-.58-2.67a26.2,26.2,0,0,1-1-7.08c.16-2.26-2.84-7.27-6.69-8.95-1.55-.67-3.6-.15-5.51,1.39s-3.2,3.87-2.89,5.4a21.1,21.1,0,0,0,1.79,4.58c1.05,2.23,2.15,4.54,2.22,6.8a.48.48,0,0,1-.22.44.51.51,0,0,1-.48,0l-1.36-.6c-4.18-1.81-11.17-4.85-14.75-10.55a10,10,0,0,1-1.65-7.05.62.62,0,0,1,.07-.19c.29-.45.58-.9.89-1.35,2.72-4,12-5.23,12.41-5.28.58-.09,14.58-2.07,21.82,2.34a17.42,17.42,0,0,1,3.18,2.47.57.57,0,0,1,.13.21,15.19,15.19,0,0,1,.6,4.21,23.13,23.13,0,0,1-6.07,15.89c-.31.35-.62.66-.92,1A.52.52,0,0,1,152.16,163.28Zm-10.35-21.13a4.47,4.47,0,0,1,1.83.37c4.29,1.86,7.48,7.34,7.29,9.93a25.69,25.69,0,0,0,1,6.79c.18.79.37,1.63.55,2.52l.23-.25a22.19,22.19,0,0,0,5.81-15.22,14.11,14.11,0,0,0-.53-3.8,16.68,16.68,0,0,0-2.9-2.24c-6.93-4.22-21-2.22-21.16-2.2s-9.26,1.24-11.72,4.86c-.29.41-.56.82-.82,1.23a9.05,9.05,0,0,0,1.53,6.26c3.41,5.44,10.23,8.4,14.3,10.16l.59.26a21.27,21.27,0,0,0-2.06-5.59,21.79,21.79,0,0,1-1.86-4.82c-.45-2.23,1.3-4.8,3.24-6.37A7.71,7.71,0,0,1,141.81,142.15Z" style="fill:#263238"></path><path d="M132.26,130.74s1.05,12.58,1.4,16.08,2.27,12.41,8.21,14.15,9.44-5.06,8.57-10.13S148,141.05,148,139.3a8.52,8.52,0,0,0-.18-2.27Z" style="fill:#fff"></path><path d="M143.74,161.76a6.88,6.88,0,0,1-2-.31c-5.78-1.7-8.11-10-8.57-14.58-.35-3.46-1.39-16-1.4-16.09a.5.5,0,0,1,.2-.44.48.48,0,0,1,.49-.06L148,136.57a.48.48,0,0,1,.29.3,9.11,9.11,0,0,1,.2,2.43,27.17,27.17,0,0,0,.93,4.6c.48,1.95,1.08,4.38,1.51,6.85a10.65,10.65,0,0,1-3,9.37A6.17,6.17,0,0,1,143.74,161.76Zm-10.91-30.25c.23,2.84,1,12.32,1.33,15.26.43,4.37,2.58,12.17,7.85,13.73a5.28,5.28,0,0,0,5.23-1.13,9.72,9.72,0,0,0,2.7-8.45c-.42-2.43-1-4.74-1.49-6.78a26.26,26.26,0,0,1-1-4.84,13.14,13.14,0,0,0-.11-1.9Z" style="fill:#263238"></path><path d="M147.81,137l-15.55-6.29s.8,9.57,1.23,14.34L148,139A8,8,0,0,0,147.81,137Z" style="fill:#263238"></path><path d="M133.49,145.58a.45.45,0,0,1-.25-.07.49.49,0,0,1-.24-.39c-.44-4.76-1.24-14.34-1.24-14.34a.5.5,0,0,1,.2-.44.48.48,0,0,1,.49-.06L148,136.57a.47.47,0,0,1,.29.31,8.1,8.1,0,0,1,.19,2.08.49.49,0,0,1-.3.47l-14.49,6.11A.45.45,0,0,1,133.49,145.58Zm-.66-14.07c.19,2.27.74,8.82,1.1,12.84l13.55-5.71a11.32,11.32,0,0,0-.1-1.25Z" style="fill:#263238"></path><path d="M151.5,107.18s2.79,15.36,2.79,18.16-2.56,10.94-3.72,12.8-7,3-9.31,2.09-8.85-7-10.25-9.54a19.54,19.54,0,0,1-1.86-4.89s-3.26,1.4-5.82-2.33-1.16-7.21,1.4-7.44l2.33.69s-4.19-7.21-2.8-10.47,18.16-4.42,21.65-4.42S151.5,107.18,151.5,107.18Z" style="fill:#fff"></path><path d="M143.42,141.05a6.62,6.62,0,0,1-2.35-.35c-2.47-1-9-7.11-10.49-9.77a20.36,20.36,0,0,1-1.79-4.5c-1.13.25-3.76.4-5.87-2.67-1.46-2.13-1.84-4.45-1-6.21a3.39,3.39,0,0,1,2.78-2,.4.4,0,0,1,.19,0l1.17.35c-1.13-2.19-3.39-7.15-2.24-9.85,1.75-4.07,21.91-4.72,22.11-4.72,3.79,0,6,5.44,6.05,5.67l0,.09c.11.63,2.8,15.44,2.8,18.25s-2.64,11.2-3.8,13.06C150,140,146.26,141.05,143.42,141.05ZM129.15,125.3a.53.53,0,0,1,.24.06.51.51,0,0,1,.25.34,19.17,19.17,0,0,0,1.81,4.75c1.32,2.42,7.76,8.43,10,9.32s7.72-.33,8.7-1.9c1.09-1.73,3.65-9.8,3.65-12.53s-2.6-17-2.78-18c-.2-.49-2.15-5-5.1-5-5,0-20,1.41-21.19,4.12-1.06,2.48,1.64,8.08,2.77,10a.5.5,0,0,1,0,.56.49.49,0,0,1-.54.17l-2.23-.67a2.42,2.42,0,0,0-1.87,1.44c-.68,1.44-.33,3.39.94,5.22,2.28,3.32,5.09,2.2,5.21,2.15A.65.65,0,0,1,129.15,125.3Z" style="fill:#263238"></path><path d="M138.77,111l-3.71,1.65a1,1,0,0,0-.48,1.41l.14.25a1,1,0,0,0,1.36.41l3.57-1.9a1,1,0,0,0,.41-1.39h0A1,1,0,0,0,138.77,111Z" style="fill:#263238"></path><path d="M135.61,115.29a1.52,1.52,0,0,1-1.33-.78l-.13-.25a1.47,1.47,0,0,1-.11-1.21,1.49,1.49,0,0,1,.82-.9l3.71-1.64a1.5,1.5,0,0,1,1.93.64,1.51,1.51,0,0,1-.61,2.07l-3.58,1.9A1.45,1.45,0,0,1,135.61,115.29Zm3.57-3.91a.52.52,0,0,0-.21,0h0l-3.71,1.65a.49.49,0,0,0-.28.3.53.53,0,0,0,0,.41l.14.25a.52.52,0,0,0,.69.2l3.57-1.89a.49.49,0,0,0,.25-.31.48.48,0,0,0,0-.39A.52.52,0,0,0,139.18,111.38Zm-.41-.42h0Z" style="fill:#263238"></path><path d="M145.67,110.15l0,.07a.82.82,0,0,0,.61,1l2.87.65a.82.82,0,0,0,1-.8h0a.83.83,0,0,0-.62-.8l-2.85-.71A.82.82,0,0,0,145.67,110.15Z" style="fill:#263238"></path><path d="M149.31,112.4a1.36,1.36,0,0,1-.29,0l-2.87-.65a1.3,1.3,0,0,1-.84-.61,1.26,1.26,0,0,1-.14-1l0-.07a1.31,1.31,0,0,1,1.59-.93l2.85.71a1.32,1.32,0,0,1-.32,2.6Zm-3.16-2.12,0,.07a.32.32,0,0,0,0,.25.3.3,0,0,0,.2.15l2.87.64a.32.32,0,0,0,.27-.06.35.35,0,0,0,.12-.25.31.31,0,0,0-.25-.31l-2.84-.71a.32.32,0,0,0-.39.22Z" style="fill:#263238"></path><path d="M153.31,130.46s-.45-5.31-1.51-6.07-9-.15-9-.15-8-2.27-8.19-.45c-.12,1.33.24,8.44.58,11.76,2.24,2.15,4.75,4.18,6,4.68,2.32.93,8.14-.23,9.31-2.09a39.42,39.42,0,0,0,2.75-7.65Zm-1.82.91c-.91,3-2.88,4.85-3.79,4.4s-1.67-3.34-2.43-3.64-1.36,1.21-2.27,2.58-3.34,1.82-4.4.91-2.28-9.26-2.28-10.32,11.08.61,11.08.61a21.74,21.74,0,0,1,3.49-.15C151.64,125.91,152.4,128.34,151.49,131.37Z" style="fill:gray"></path><path d="M143.42,141.05a6.62,6.62,0,0,1-2.35-.35c-1.5-.6-4.27-3-6.18-4.79a.46.46,0,0,1-.15-.31c-.32-3.16-.7-10.41-.58-11.85a1.07,1.07,0,0,1,.47-.8c1.48-1,7,.42,8.27.79,2-.15,8.08-.54,9.19.25s1.6,5.09,1.72,6.41v0a.44.44,0,0,1,0,.2A39.22,39.22,0,0,1,151,138.4C150,140,146.26,141.05,143.42,141.05Zm-7.71-5.73a26.71,26.71,0,0,0,5.73,4.45c2.19.88,7.72-.33,8.7-1.9a38.52,38.52,0,0,0,2.67-7.41c-.21-2.44-.77-5.28-1.3-5.66s-4.92-.35-8.62-.06a.52.52,0,0,1-.18,0c-2.62-.74-6.68-1.52-7.51-1C135.05,125.08,135.39,131.94,135.71,135.32Zm4.4,1.27a2.88,2.88,0,0,1-1.84-.59c-1.29-1.11-2.45-9.79-2.45-10.7a.67.67,0,0,1,.24-.5c.95-.81,7.48,0,11.35.61a18.45,18.45,0,0,1,3.57-.14,1.3,1.3,0,0,1,.84.68,7.5,7.5,0,0,1,.15,5.56h0c-.77,2.59-2.2,4.21-3.28,4.67a1.38,1.38,0,0,1-1.21,0,4.79,4.79,0,0,1-1.54-2.18,5.37,5.37,0,0,0-.86-1.45c-.22,0-.73.87-1,1.39-.19.32-.4.67-.63,1a4.18,4.18,0,0,1-3.3,1.61Zm-3.28-11.07c.1,1.88,1.32,9.06,2.1,9.72a2.14,2.14,0,0,0,1.62.32,2.92,2.92,0,0,0,2-1.13c.22-.32.41-.65.6-1,.67-1.12,1.31-2.18,2.28-1.8.52.21.86.88,1.38,1.94a5.43,5.43,0,0,0,1.08,1.72.48.48,0,0,0,.37,0c.86-.37,2.07-1.88,2.72-4h0c.84-2.78.15-4.82-.23-5a18.86,18.86,0,0,0-3.33.16h-.13C142.87,125.73,137.9,125.24,136.83,125.52Z" style="fill:#545454"></path><path d="M145.16,128.76a14.18,14.18,0,0,1-7.3-2.29.5.5,0,1,1,.57-.82s4.28,2.9,8.7,1.9a.5.5,0,0,1,.6.37.5.5,0,0,1-.37.6A9.94,9.94,0,0,1,145.16,128.76Z" style="fill:#263238"></path><path d="M144.82,113.32s2.12,9.25,2.27,10-1.51,3.19-3.33,1.82a5.35,5.35,0,0,1-2.13-2.73" style="fill:#fff"></path><path d="M144.88,126.06a2.33,2.33,0,0,1-1.42-.51,5.75,5.75,0,0,1-2.31-3,.5.5,0,1,1,1-.22,5,5,0,0,0,1.94,2.44,1.25,1.25,0,0,0,1.49.12,2.22,2.22,0,0,0,1-1.44c-.15-.74-2.25-9.91-2.27-10a.5.5,0,0,1,1-.22c.08.38,2.12,9.27,2.27,10a2.9,2.9,0,0,1-1.44,2.45A2.43,2.43,0,0,1,144.88,126.06Z" style="fill:#263238"></path><path d="M140.09,117.82c.24.8.15,1.54-.21,1.65s-.85-.45-1.1-1.25-.15-1.54.21-1.65S139.84,117,140.09,117.82Z" style="fill:#263238"></path><path d="M149.06,116.58c.1.83-.13,1.54-.5,1.58s-.76-.59-.86-1.42.13-1.55.51-1.59S149,115.75,149.06,116.58Z" style="fill:#263238"></path><path d="M123.33,97.17s-6,6-3.72,11.18S127.76,123,127.76,123h1.16l-.23-4s3.72-1.39,3-4.65a14.53,14.53,0,0,0-2.32-5.36s4,3,8.61,2.33,6.75-6.28,8.38-4.42,4.19,3,9.07.46,8-11.23,2.66-14.72-10.34-.4-13.13.29-4.89-4-11.17-2.09A26.18,26.18,0,0,0,123.33,97.17Z" style="fill:#263238"></path><path d="M128.92,123.51h-1.16a.5.5,0,0,1-.43-.24c-.06-.1-5.86-9.63-8.18-14.72-2.43-5.34,3.51-11.41,3.83-11.73a26.37,26.37,0,0,1,10.69-6.41,9.58,9.58,0,0,1,8.28,1.2c1.12.62,2,1.11,2.91.89.51-.13,1.11-.34,1.79-.59,2.87-1,7.2-2.59,11.73.36a6.81,6.81,0,0,1,3,6.29,11.65,11.65,0,0,1-5.71,9.3c-4.24,2.22-7.41,2-9.69-.58-.18-.2-.29-.21-.33-.21-.42,0-1.15.67-1.91,1.4-1.33,1.28-3.15,3-5.69,3.4a12.2,12.2,0,0,1-7.2-1.35,16.14,16.14,0,0,1,1.33,3.77c.58,2.69-1.54,4.42-3,5.09l.21,3.6a.47.47,0,0,1-.14.37A.48.48,0,0,1,128.92,123.51Zm-.88-1h.35l-.2-3.43a.5.5,0,0,1,.32-.5c.14,0,3.31-1.29,2.71-4.08a13.86,13.86,0,0,0-2.23-5.15.5.5,0,0,1,0-.66.49.49,0,0,1,.66,0s3.85,2.89,8.23,2.23c2.23-.34,3.85-1.88,5.15-3.13,1-1,1.8-1.7,2.64-1.68a1.44,1.44,0,0,1,1,.55c1.24,1.41,3.46,3,8.47.35a10.74,10.74,0,0,0,5.18-8.46,5.79,5.79,0,0,0-2.57-5.4c-4.11-2.68-8-1.28-10.84-.26a19.6,19.6,0,0,1-1.89.62c-1.29.32-2.43-.32-3.63-1-1.83-1-3.91-2.18-7.52-1.11a25.82,25.82,0,0,0-10.25,6.15h0c-.06,0-5.78,5.87-3.63,10.61C122.15,112.72,127.12,121,128,122.51Zm-4.71-25.34h0Z" style="fill:#263238"></path><polygon points="168.58 103.21 167.71 102.71 207.35 34.1 217.26 34.1 217.26 35.1 207.93 35.1 168.58 103.21" style="fill:#263238"></polygon><rect x="226.38" y="34.61" width="24.31" height="1" style="fill:#263238"></rect><rect x="226.38" y="40.69" width="24.31" height="1" style="fill:#263238"></rect><rect x="226.38" y="46.76" width="24.31" height="1" style="fill:#263238"></rect></g></svg>